<?xml version="1.0" encoding="UTF-8"?>
<svg width="642px" height="186px" viewBox="0 0 642 186" version="1.1" xmlns="http://www.w3.org/2000/svg" xmlns:xlink="http://www.w3.org/1999/xlink">
    <!-- Generator: Sketch 52.5 (67469) - http://www.bohemiancoding.com/sketch -->
    <title>skema_logo@1x</title>
    <desc>Created with Sketch.</desc>
    <g id="skema_logo" stroke="none" stroke-width="1" fill="none" fill-rule="evenodd">
        <g id="Group" transform="translate(71.000000, 28.000000)">
            <g id="Group-2" transform="translate(454.000000, 6.000000)" fill-rule="nonzero">
                <rect id="Rectangle" fill="#B722FF" transform="translate(75.291543, 19.291543) rotate(32.000000) translate(-75.291543, -19.291543) " x="61.291543" y="5.29154305" width="28" height="28"></rect>
                <circle id="Oval" fill="#3895FF" cx="69" cy="64" r="19"></circle>
                <polygon id="Triangle" fill="#FF462F" transform="translate(29.548670, 30.023029) rotate(-15.000000) translate(-29.548670, -30.023029) " points="29.5486704 11.0230287 55.0486704 49.0230287 4.04867043 49.0230287"></polygon>
            </g>
            <path d="M62.586,85.934 C66.3480188,89.6960188 68.229,95.1109647 68.229,102.179 C68.229,110.729043 65.6070262,117.625974 60.363,122.87 C60.363,122.984001 60.3060006,123.097999 60.192,123.212 C60.990004,121.15999 61.389,118.709014 61.389,115.859 C61.389,110.956975 59.5080188,106.625019 55.746,102.863 C54.8339954,102.064996 53.1525123,101.010507 50.7015,99.6995 C48.2504877,98.3884934 43.8900314,96.7070103 37.62,94.655 C27.2459481,91.0069818 19.8930217,86.9600222 15.561,82.514 C11.5709801,78.4099795 9.576,72.8240353 9.576,65.756 C9.576,59.3719681 11.3429823,53.9000228 14.877,49.34 C14.7629994,49.9100029 14.706,50.394498 14.706,50.7935 L14.706,52.247 C14.706,57.4910262 16.5869812,61.6519846 20.349,64.73 C23.541016,67.3520131 29.1269601,70.0879858 37.107,72.938 C49.9890644,77.6120234 58.4819795,81.94398 62.586,85.934 Z M68.229,59.429 C66.2909903,56.1229835 64.0965123,52.9595151 61.6455,49.9385 C59.1944877,46.9174849 56.4300154,44.210012 53.352,41.816 L68.229,41.816 L68.229,59.429 Z M9.576,110.387 C11.4000091,113.693017 13.5374877,116.856485 15.9885,119.8775 C18.4395123,122.898515 21.2039846,125.605988 24.282,128 L9.576,128 L9.576,110.387 Z M103.505,99.443 C103.505,106.625036 103.761497,112.467477 104.2745,116.9705 C104.787503,121.473523 105.499995,124.978987 106.412,127.487 L106.754,127.829 L84.011,127.829 L84.011,0.947 C84.011,-2.4730171 83.4980051,-5.15199031 82.472,-7.09 C86.2340188,-7.43200171 89.8534826,-7.88799715 93.3305,-8.458 C96.8075174,-9.02800285 100.198983,-9.71199601 103.505,-10.51 L103.505,99.443 Z M138.56,128.342 C138.674001,127.999998 138.731,127.658002 138.731,127.316 C138.731,126.973998 138.674001,126.518003 138.56,125.948 C138.445999,125.377997 138.104003,124.437507 137.534,123.1265 C136.963997,121.815493 136.023507,119.991512 134.7125,117.6545 C133.401493,115.317488 131.549012,112.211019 129.155,108.335 C128.242995,107.080994 127.160006,105.45651 125.906,103.4615 C124.651994,101.46649 123.227008,99.1580131 121.631,96.536 C120.718995,94.7119909 119.522007,92.6315117 118.04,90.2945 C116.557993,87.9574883 114.84801,85.3070148 112.91,82.343 C115.532013,79.948988 118.780981,76.4720228 122.657,71.912 L125.393,68.834 L149.162,104.744 C149.732003,105.770005 150.529995,107.052492 151.556,108.5915 C152.582005,110.130508 153.835993,112.039989 155.318,114.32 C155.546001,114.548001 155.830998,114.975497 156.173,115.6025 C156.515002,116.229503 157.255994,117.340992 158.396,118.937 L161.987,124.238 L163.868,126.803 L164.894,128.342 L138.56,128.342 Z M147.623,44.21 C145.342989,41.2459852 142.721015,38.5955117 139.757,36.2585 C136.792985,33.9214883 133.715016,31.8410091 130.523,30.017 L161.816,30.017 L147.623,44.21 Z M205.471,84.053 C205.471,92.7170433 206.43999,100.240968 208.378,106.625 C210.31601,113.009032 213.222981,118.081981 217.099,121.844 C219.949014,124.808015 223.197982,126.859994 226.846,128 C213.963936,127.885999 203.419041,123.83904 195.211,115.859 C187.002959,107.536958 182.899,97.0490633 182.899,84.395 C182.899,71.8549373 186.88896,61.4240416 194.869,53.102 C199.999026,47.7439732 205.869967,44.1530091 212.482,42.329 C211.113993,44.2670097 209.917005,47.1169812 208.891,50.879 C207.978995,54.071016 207.181003,58.3459732 206.497,63.704 C205.812997,69.0620268 205.471,75.844959 205.471,84.053 Z M253.693,61.994 C253.807001,62.5640028 253.949499,63.2194963 254.1205,63.9605 C254.291501,64.7015037 254.433999,65.4139966 254.548,66.098 L237.961,66.098 C237.961,55.1539453 236.99201,47.5160217 235.054,43.184 C235.054,43.0699994 235.0255,42.9845003 234.9685,42.9275 C234.9115,42.8704997 234.883,42.7850006 234.883,42.671 C237.505013,43.469004 239.898989,44.5519932 242.065,45.92 C247.879029,49.5680182 251.75499,54.9259647 253.693,61.994 Z M371.904,127.829 C372.018001,127.258997 372.075,126.575004 372.075,125.777 L372.075,78.41 C372.075,73.3939749 372.018001,69.2330165 371.904,65.927 C371.789999,62.6209835 371.647501,59.9420103 371.4765,57.89 C371.305499,55.8379897 371.134501,54.2705054 370.9635,53.1875 C370.792499,52.1044946 370.593001,51.2780028 370.365,50.708 C369.908998,49.3399932 369.025507,47.8295083 367.7145,46.1765 C366.403493,44.5234917 364.323014,43.2410046 361.473,42.329 C363.639011,41.8729977 366.203985,41.645 369.168,41.645 C376.920039,41.645 382.562982,43.6684798 386.097,47.7155 C389.631018,51.7625202 391.398,58.1179567 391.398,66.782 L391.398,119.963 C391.398,122.357012 391.4265,124.066995 391.4835,125.093 C391.5405,126.119005 391.682999,127.030996 391.911,127.829 L371.904,127.829 Z M281.445,117.911 C281.445,120.305012 281.587499,122.299992 281.8725,123.896 C282.157501,125.492008 282.413999,126.802995 282.642,127.829 L262.122,127.829 C262.464002,126.802995 262.720499,125.720006 262.8915,124.58 C263.062501,123.439994 263.148,121.958009 263.148,120.134 L263.148,83.027 C263.148,75.5029624 263.1195,69.5750217 263.0625,65.243 C263.0055,60.9109783 262.920001,57.6620108 262.806,55.496 C262.691999,53.3299892 262.549501,51.9335031 262.3785,51.3065 C262.207499,50.6794969 262.065001,50.1950017 261.951,49.853 L261.609,49.169 L261.609,48.998 C268.563035,47.6299932 275.174969,45.4640148 281.445,42.5 L281.445,117.911 Z M317.355,127.829 C317.469001,127.258997 317.526,126.575004 317.526,125.777 L317.526,78.41 C317.526,73.3939749 317.469001,69.2330165 317.355,65.927 C317.240999,62.6209835 317.098501,59.9420103 316.9275,57.89 C316.756499,55.8379897 316.585501,54.2705054 316.4145,53.1875 C316.243499,52.1044946 316.044001,51.2780028 315.816,50.708 C315.359998,49.3399932 314.476507,47.8295083 313.1655,46.1765 C311.854493,44.5234917 309.774014,43.2410046 306.924,42.329 C309.090011,41.8729977 311.654985,41.645 314.619,41.645 C322.371039,41.645 328.013982,43.6684798 331.548,47.7155 C335.082018,51.7625202 336.849,58.1179567 336.849,66.782 L336.849,119.963 C336.849,122.357012 336.8775,124.066995 336.9345,125.093 C336.9915,126.119005 337.133999,127.030996 337.362,127.829 L317.355,127.829 Z M471.989,116.03 C472.331002,118.994015 472.929496,121.302492 473.7845,122.9555 C474.639504,124.608508 475.636994,125.890995 476.777,126.803 C474.154987,127.487003 471.305015,127.829 468.227,127.829 C463.894978,127.829 460.817009,127.031008 458.993,125.435 C458.422997,124.864997 457.653505,123.753508 456.6845,122.1005 C455.715495,120.447492 455.003002,118.025016 454.547,114.833 L454.547,76.871 C454.547,72.1969766 454.490001,68.2925157 454.376,65.1575 C454.261999,62.0224843 454.119501,59.4290103 453.9485,57.377 C453.777499,55.3249897 453.606501,53.7290057 453.4355,52.589 C453.264499,51.4489943 453.065001,50.5940028 452.837,50.024 L452.666,48.998 L452.666,48.827 C452.323998,47.6869943 451.896503,46.5470057 451.3835,45.407 C450.870497,44.2669943 450.215004,43.1840051 449.417,42.158 C457.055038,42.956004 462.640982,44.950984 466.175,48.143 C469.937019,51.5630171 471.818,58.0039527 471.818,67.466 L471.818,103.376 C471.818,108.050023 471.8465,111.213492 471.9035,112.8665 C471.9605,114.519508 471.989,115.573998 471.989,116.03 Z M420.005,69.518 C417.040985,69.518 414.704009,68.6060091 412.994,66.782 C411.397992,65.2999926 410.6,63.3050125 410.6,60.797 C410.6,57.7189846 411.682989,54.6980148 413.849,51.734 C413.963001,52.9880063 414.589994,54.3274929 415.73,55.7525 C416.870006,57.1775071 419.263982,58.0039989 422.912,58.232 C423.938005,58.3460006 424.792997,58.6594974 425.477,59.1725 C426.161003,59.6855026 426.503,60.9679897 426.503,63.02 C426.503,64.9580097 425.876006,66.4399949 424.622,67.466 C423.595995,68.8340068 422.05701,69.518 420.005,69.518 Z M425.306,106.967 C425.306,110.273017 425.619497,113.037489 426.2465,115.2605 C426.873503,117.483511 427.699995,119.307493 428.726,120.7325 C429.752005,122.157507 430.891994,123.268996 432.146,124.067 C433.400006,124.865004 434.653994,125.434998 435.908,125.777 C432.487983,127.601009 428.840019,128.513 424.964,128.513 C422.569988,128.513 420.461009,128.142504 418.637,127.4015 C416.812991,126.660496 415.103008,125.606007 413.507,124.238 C410.656986,121.273985 409.232,117.398024 409.232,112.61 C409.232,101.551945 416.584926,93.8000222 431.291,89.354 C427.30098,93.9140228 425.306,99.7849641 425.306,106.967 Z" id="skema" fill="#000000"></path>
        </g>
    </g>
</svg>